# xmcd CD database file
#
# Track frame offsets:
#	150
#	16441
#	35050
#	51294
#
# Disc length: 931 seconds
#
# Revision: 0
# Processed by: cddbd v1.5.1PL2 Copyright (c) Steve Scherf et al.
# Submitted via: CDex 1.51
#
DISCID=3003a104
DTITLE=ジャム - Berry Love
DYEAR=2005
DGENRE=JPop
TTITLE0=Berry Love
TTITLE1=ブランコ
TTITLE2=Berry Love(inst)
TTITLE3=ブランコ(inst)
EXTD=YEAR: 2005
EXTT0=
EXTT1=
EXTT2=
EXTT3=
PLAYORDER=
